<svg xmlns="http://www.w3.org/2000/svg" width="48" height="48" fill="none"><path fill="#555" d="M24 48c13.255 0 24-10.745 24-24S37.255 0 24 0 0 10.745 0 24s10.745 24 24 24Z"/><path fill="#fff" fill-rule="evenodd" d="M24 16c-2.173 0-2.444.01-3.299.05-2.906.133-4.52 1.745-4.653 4.651C16.009 21.556 16 21.828 16 24c0 2.173.01 2.445.048 3.299.133 2.905 1.747 4.52 4.653 4.653.855.039 1.126.048 3.299.048s2.445-.01 3.3-.048c2.901-.133 4.521-1.745 4.652-4.653.039-.854.048-1.126.048-3.299 0-2.172-.01-2.444-.048-3.299-.13-2.902-1.745-4.52-4.652-4.652-.855-.04-1.127-.049-3.3-.049Zm0 1.443c2.136 0 2.39.008 3.233.046 2.17.099 3.18 1.127 3.28 3.279.038.844.046 1.096.046 3.232s-.008 2.39-.046 3.232c-.1 2.15-1.109 3.181-3.28 3.28-.844.037-1.096.047-3.233.047-2.136 0-2.39-.008-3.232-.047-2.173-.1-3.18-1.132-3.28-3.28-.037-.843-.047-1.096-.047-3.232s.01-2.39.047-3.232c.099-2.153 1.11-3.181 3.28-3.28.843-.039 1.096-.045 3.232-.045ZM19.892 24a4.108 4.108 0 1 1 8.216 0 4.108 4.108 0 0 1-8.216 0ZM24 26.667a2.666 2.666 0 1 1 0-5.334A2.668 2.668 0 0 1 26.668 24 2.668 2.668 0 0 1 24 26.667Zm3.31-6.936a.96.96 0 1 1 1.92 0 .96.96 0 0 1-1.92 0Z" clip-rule="evenodd"/></svg>