<svg xmlns="http://www.w3.org/2000/svg" width="82" height="34" fill="none">
<path fill="#fff" d="M10.68 33.48c-2.453 0-4.4-.44-5.84-1.32-1.413-.907-2.413-2.16-3-3.76-.587-1.627-.88-3.533-.88-5.72V11c0-2.24.293-4.16.88-5.76.587-1.627 1.587-2.88 3-3.76C6.28.6 8.227.16 10.68.16c2.4 0 4.267.4 5.6 1.2 1.36.773 2.32 1.867 2.88 3.28.56 1.413.84 3.04.84 4.88v2.8h-7V9.08c0-.64-.04-1.253-.12-1.84-.053-.587-.24-1.067-.56-1.44-.32-.4-.867-.6-1.64-.6-.747 0-1.307.2-1.68.6-.347.4-.573.907-.68 1.52-.08.587-.12 1.213-.12 1.88v15.24c0 .72.053 1.387.16 2 .133.587.373 1.067.72 1.44.373.347.907.52 1.6.52.747 0 1.28-.187 1.6-.56.32-.4.52-.907.6-1.52.08-.613.12-1.24.12-1.88v-3.4h7v2.8c0 1.84-.28 3.493-.84 4.96-.533 1.44-1.48 2.587-2.84 3.44-1.333.827-3.213 1.24-5.64 1.24ZM23.94 33V.6h5.04l6.64 15.6V.6h5.92V33H36.7l-6.64-16.8V33h-6.12Zm31.02.48c-2.026 0-3.72-.36-5.08-1.08-1.36-.72-2.386-1.827-3.08-3.32-.692-1.52-1.08-3.48-1.16-5.88l6.12-.92c.028 1.387.148 2.507.36 3.36.24.853.56 1.467.96 1.84.428.373.934.56 1.52.56.748 0 1.228-.253 1.44-.76.24-.507.36-1.04.36-1.6 0-1.333-.32-2.453-.96-3.36-.64-.933-1.506-1.867-2.6-2.8l-2.8-2.44a16.251 16.251 0 0 1-3.12-3.52c-.826-1.333-1.24-2.973-1.24-4.92 0-2.747.814-4.84 2.44-6.28C49.749.893 51.96.16 54.76.16c1.734 0 3.12.293 4.16.88 1.068.587 1.868 1.36 2.4 2.32.56.933.934 1.933 1.12 3 .214 1.04.334 2.04.36 3l-6.16.76a20.27 20.27 0 0 0-.2-2.48c-.08-.72-.266-1.267-.56-1.64-.292-.4-.746-.6-1.36-.6-.666 0-1.16.28-1.48.84-.292.56-.44 1.12-.44 1.68 0 1.2.28 2.187.84 2.96.588.747 1.348 1.533 2.28 2.36l2.68 2.36c1.414 1.2 2.6 2.56 3.56 4.08.988 1.52 1.48 3.4 1.48 5.64 0 1.52-.346 2.907-1.04 4.16-.692 1.227-1.68 2.2-2.96 2.92-1.252.72-2.746 1.08-4.48 1.08ZM69.829 33V5.92h-4.88V.6h16.92v5.32h-4.84V33h-7.2Z"/>
</svg>